<?xml version="1.0" encoding="UTF-8" standalone="no"?>
<!DOCTYPE svg PUBLIC "-//W3C//DTD SVG 1.1//EN" "http://www.w3.org/Graphics/SVG/1.1/DTD/svg11.dtd">
<svg width="100%" height="100%" viewBox="0 0 500 500" version="1.1" xmlns="http://www.w3.org/2000/svg" xmlns:xlink="http://www.w3.org/1999/xlink" xml:space="preserve" xmlns:serif="http://www.serif.com/" style="fill-rule:evenodd;clip-rule:evenodd;stroke-linejoin:round;stroke-miterlimit:2;">
    <g transform="matrix(1,0,0,1,0,-2.87628)">
        <g transform="matrix(0.260417,0,0,0.462963,0,2.87628)">
            <rect id="Icon" x="0" y="0" width="1920" height="1080" style="fill:none;"/>
            <clipPath id="_clip1">
                <rect id="Icon1" serif:id="Icon" x="0" y="0" width="1920" height="1080"/>
            </clipPath>
            <g clip-path="url(#_clip1)">
                <g transform="matrix(1,0,0,2,0,-1080)">
                    <rect x="0" y="540" width="1920" height="540" style="fill:url(#_Linear2);"/>
                </g>
                <g id="Layer-1" serif:id="Layer 1">
                </g>
                <g>
                    <g transform="matrix(-9.85223,5.54188,-9.85223,-5.54188,1477.47,540.707)">
                        <path d="M-2.878,45.401L-7.122,49.645L-30.702,26.064L-7.518,2.878L-3.274,7.122L-22.216,26.064L-2.878,45.401Z" style="fill:rgb(160,90,236);"/>
                    </g>
                    <g transform="matrix(-9.85223,5.54188,-9.85223,-5.54188,442.53,540.703)">
                        <path d="M2.878,-45.401L7.122,-49.645L30.702,-26.064L7.518,-2.878L3.274,-7.122L22.216,-26.064L2.878,-45.401Z" style="fill:rgb(53,172,255);"/>
                    </g>
                    <g transform="matrix(-9.85223,5.54188,-9.85223,-5.54188,439.821,539.179)">
                        <path d="M2.122,-54.92L-2.122,-50.676L-15.549,-64.103C-21.575,-70.13 -31.344,-70.13 -37.369,-64.104C-43.395,-58.078 -43.395,-48.309 -37.369,-42.284L-10.514,-15.429C-2.146,-7.06 -2.146,6.509 -10.514,14.878L-11.109,15.473C-19.568,23.931 -33.311,23.827 -41.641,15.245L-54.676,1.815L-50.37,-2.365L-37.335,11.065C-31.337,17.245 -21.442,17.319 -15.353,11.229L-14.758,10.634C-8.732,4.609 -8.732,-5.16 -14.758,-11.185L-41.613,-38.04C-49.981,-46.409 -49.981,-59.978 -41.613,-68.346C-33.244,-76.716 -19.675,-76.716 -11.305,-68.347L2.122,-54.92Z" style="fill:white;"/>
                    </g>
                </g>
            </g>
        </g>
    </g>
    <defs>
        <linearGradient id="_Linear2" x1="0" y1="0" x2="1" y2="0" gradientUnits="userSpaceOnUse" gradientTransform="matrix(1920,0,0,540,0,810)"><stop offset="0" style="stop-color:rgb(160,90,236);stop-opacity:1"/><stop offset="1" style="stop-color:rgb(53,172,255);stop-opacity:1"/></linearGradient>
    </defs>
</svg>
